<?xml version="1.0" standalone="no"?>
<!DOCTYPE svg PUBLIC "-//W3C//DTD SVG 20010904//EN"
 "http://www.w3.org/TR/2001/REC-SVG-20010904/DTD/svg10.dtd">
<svg version="1.0" xmlns="http://www.w3.org/2000/svg"
 width="812.000000pt" height="812.000000pt" viewBox="0 0 812.000000 812.000000"
 preserveAspectRatio="xMidYMid meet">
<metadata>
Created by potrace 1.11, written by Peter Selinger 2001-2013
</metadata>
<g transform="translate(0.000000,812.000000) scale(0.100000,-0.100000)"
fill="#000000" stroke="none">
<path d="M2643 7903 c-43 -54 -93 -118 -112 -143 -19 -25 -37 -47 -40 -50 -14
-11 -70 -99 -103 -160 -38 -71 -121 -232 -123 -240 -1 -3 -15 -34 -32 -70
-101 -211 -144 -367 -147 -537 -2 -50 1 -118 5 -150 14 -118 21 -159 29 -193
7 -29 24 -108 46 -215 2 -11 6 -31 9 -45 38 -184 46 -385 21 -487 -3 -13 -8
-32 -11 -44 -8 -39 -24 -48 -79 -45 -104 6 -190 51 -226 120 -10 19 -15 56
-15 105 1 92 7 132 46 281 42 157 79 317 85 365 10 70 10 219 1 255 -19 77
-30 116 -35 130 -3 8 -7 23 -9 34 -6 33 -56 150 -70 164 -7 7 -13 18 -13 23 0
5 -6 17 -14 26 -8 10 -31 38 -51 63 -20 25 -50 61 -68 81 -18 19 -52 60 -77
89 -25 30 -56 65 -69 79 l-23 26 7 -125 c4 -69 9 -150 11 -180 11 -152 6 -367
-11 -462 -3 -16 -7 -38 -9 -50 -9 -52 -38 -150 -56 -193 -11 -25 -19 -48 -19
-50 0 -10 -74 -159 -119 -240 -93 -166 -211 -415 -197 -415 3 0 0 -12 -6 -27
-11 -29 -12 -33 -28 -118 -18 -95 -24 -170 -24 -310 1 -119 7 -233 14 -242 2
-3 3 -7 12 -53 4 -19 9 -44 11 -55 20 -97 145 -355 187 -385 4 -3 9 -13 11
-23 2 -15 -9 -23 -54 -37 -171 -53 -274 -191 -343 -460 -1 -3 -5 -25 -10 -50
-5 -25 -9 -47 -10 -50 -1 -3 -5 -32 -9 -65 -4 -32 -10 -68 -12 -80 -5 -25 -5
-178 0 -225 10 -102 31 -211 58 -305 10 -38 20 -74 21 -80 2 -5 5 -14 8 -20 4
-5 9 -22 13 -37 3 -15 11 -40 18 -55 6 -15 12 -30 13 -33 2 -6 24 -60 32 -80
3 -8 5 -18 5 -22 -1 -5 3 -8 8 -8 5 0 9 -3 8 -8 -4 -14 113 -238 200 -382 93
-153 300 -443 373 -520 8 -9 22 -26 30 -38 14 -19 49 -60 194 -221 137 -153
430 -434 598 -574 22 -18 49 -40 60 -51 12 -10 38 -30 57 -45 19 -14 40 -30
46 -36 13 -12 50 -41 129 -100 33 -25 65 -48 70 -53 6 -4 46 -32 90 -62 44
-30 82 -58 83 -62 2 -5 8 -8 14 -8 5 0 29 -13 52 -30 110 -75 486 -279 486
-263 0 3 11 -2 25 -11 14 -9 25 -14 25 -10 0 4 6 2 13 -4 15 -12 77 -34 162
-57 57 -16 70 -18 133 -30 36 -7 160 -7 192 0 14 3 41 8 60 11 48 8 207 60
272 88 29 13 58 25 63 26 21 5 291 150 359 193 185 116 487 329 494 349 2 4
10 8 17 8 7 0 15 3 17 8 2 4 28 27 58 51 30 25 60 50 65 56 6 6 19 17 31 25
21 15 40 32 193 169 96 86 349 338 426 425 33 37 71 80 85 95 22 24 71 81 129
151 11 14 25 31 31 38 33 38 200 265 220 298 13 21 30 45 37 52 8 8 21 28 30
45 9 18 19 34 22 37 38 30 251 453 305 605 39 112 83 273 90 334 3 23 7 45 10
50 4 5 8 58 11 118 2 59 5 110 6 113 2 7 2 8 -5 55 -3 22 -8 66 -11 99 -3 32
-7 62 -10 66 -2 4 -6 22 -9 41 -8 66 -45 188 -79 259 -11 25 -21 47 -22 50 -2
13 -40 70 -47 70 -4 0 -8 5 -8 10 0 6 -14 24 -30 42 -17 17 -28 33 -26 35 2 3
0 19 -5 36 -24 79 -28 167 -13 237 16 76 42 134 162 363 34 64 60 117 57 117
-3 0 -1 10 6 21 28 54 50 157 50 239 0 47 -2 92 -4 100 -15 59 -23 83 -51 140
-17 36 -29 68 -28 73 1 4 -3 7 -8 7 -6 0 -10 7 -10 15 0 8 -4 15 -10 15 -5 0
-10 4 -10 10 0 8 -67 119 -88 145 -4 6 -23 35 -41 65 -32 52 -42 69 -90 154
-95 168 -242 343 -346 414 -22 15 -41 30 -43 35 -2 4 -9 7 -15 7 -7 1 -28 14
-47 30 -19 17 -40 30 -46 30 -7 0 -14 3 -16 8 -3 7 -78 65 -78 60 0 -2 11 -44
25 -93 14 -50 28 -101 31 -115 3 -14 10 -41 16 -60 7 -19 13 -39 14 -45 1 -5
20 -67 42 -137 42 -132 44 -149 28 -313 -13 -127 -40 -269 -56 -290 -5 -5 -8
-12 -8 -15 1 -17 -48 -102 -77 -133 -111 -118 -289 -109 -520 26 -86 50 -161
126 -204 208 -64 119 -51 224 52 413 20 38 37 75 37 82 0 8 5 14 10 14 6 0 10
5 10 11 0 6 6 25 14 42 27 58 48 112 52 132 2 11 7 31 10 45 9 33 9 197 1 235
-4 17 -9 42 -12 56 -3 14 -14 55 -26 90 -11 35 -22 71 -24 79 -2 8 -8 28 -15
45 -21 55 -41 149 -46 215 -2 36 -6 98 -8 138 -3 41 -7 76 -9 79 -4 4 -112
-78 -198 -150 -33 -29 -69 -79 -105 -147 -16 -30 -31 -57 -34 -60 -3 -3 -15
-25 -27 -50 -27 -58 -46 -82 -115 -152 -74 -74 -107 -90 -198 -91 -64 0 -84 4
-136 32 -64 33 -154 115 -154 141 0 5 -3 10 -8 10 -6 0 -21 29 -62 125 -32 73
-49 194 -51 352 -1 73 8 418 13 462 3 30 -11 27 -99 -20 -224 -120 -368 -232
-442 -344 -14 -22 -28 -42 -31 -45 -7 -6 -52 -102 -69 -145 -34 -90 -46 -319
-27 -500 13 -119 16 -147 22 -270 13 -243 6 -288 -59 -385 -80 -116 -149 -149
-208 -97 l-26 22 1 170 c0 94 -3 188 -7 210 -17 92 -31 146 -39 151 -4 3 -8
12 -8 20 0 21 -47 118 -87 181 -87 137 -188 241 -378 391 -44 34 -89 70 -100
80 -45 37 -105 82 -105 76 0 -3 11 -49 24 -102 14 -53 27 -108 30 -122 14 -70
37 -152 60 -215 20 -58 35 -106 40 -135 1 -3 4 -9 7 -15 15 -23 30 -114 30
-177 -1 -80 -22 -99 -118 -103 -62 -3 -122 23 -150 63 -9 15 -18 29 -19 32 0
3 -6 18 -12 33 -25 60 -37 146 -34 247 2 58 5 294 7 525 2 231 6 445 9 475 7
64 12 160 9 160 -1 0 -37 -44 -80 -97z m1402 -6493 c0 -20 10 -30 50 -48 27
-13 56 -34 65 -45 23 -32 49 -117 44 -143 -2 -13 -6 -34 -8 -46 -2 -13 -9 -35
-16 -50 -11 -24 -9 -30 21 -67 19 -22 38 -41 43 -41 12 0 -49 -46 -88 -67 -39
-20 -71 -26 -135 -25 -141 2 -260 121 -266 267 -2 33 0 64 3 70 4 5 7 16 8 23
14 92 147 198 246 197 28 0 33 -4 33 -25z"/>
</g>
</svg>
