<?xml version="1.0" encoding="utf-8"?>
<!-- Generator: Adobe Illustrator 14.0.0, SVG Export Plug-In . SVG Version: 6.00 Build 43363)  -->
<!DOCTYPE svg PUBLIC "-//W3C//DTD SVG 1.1//EN" "http://www.w3.org/Graphics/SVG/1.1/DTD/svg11.dtd">
<svg version="1.1" id="Layer_1" xmlns="http://www.w3.org/2000/svg" xmlns:xlink="http://www.w3.org/1999/xlink" x="0px" y="0px"
	 width="171px" height="203px" viewBox="0 0 171 203" enable-background="new 0 0 171 203" xml:space="preserve">
<g>
	<path fill="#F6921E" d="M147.203,111.54l-120.334-9.936l-0.385-0.722c-1.154-2.159-2.801-4.114-4.544-6.183
		c-1.317-1.563-2.679-3.18-3.878-4.957c-4.424-6.551-5.729-14.179-4.103-24.006c0.819-4.952,3.073-8.98,5.255-12.875
		c1.424-2.546,2.898-5.179,3.924-8.018c2.223-6.15,2.44-10.992,2.064-17.277l-0.266-4.43l2.901,3.357
		c2.503,2.897,3.126,5.118,3.729,7.265c0.142,0.505,0.286,1.021,0.46,1.562c1.49,4.618,0.031,10.05-1.14,14.414l-0.419,1.562
		c-1.891,6.997-2.795,12.128,2.812,14.439c0.824,0.341,2.298,0.738,3.74,0.738c0.879,0,1.389-0.152,1.661-0.279
		c1.075-0.502,1.479-2.012,1.755-3.569c0.893-5.003,0.008-9.803-1.147-15.11l-0.113-0.52c-1.242-5.694-2.526-11.582-0.649-17.6
		c0.895-2.871,2.158-5.916,3.977-9.582l0.166-0.333c1.115-2.252,2.98-6.02,4.698-8.187l2.981-3.761l-0.305,4.789
		c-0.037,0.575,0.02,2.491,0.08,4.521c0.111,3.777,0.25,8.479,0.009,10.467c-0.776,6.4-0.01,11.438,2.102,13.82
		c1.079,1.217,2.524,1.809,4.419,1.809c0.135,0,0.271-0.003,0.411-0.01c1.804-0.078,2.989-0.57,3.623-1.504
		c1.655-2.439-0.233-7.864-1.361-11.104c-0.382-1.096-0.711-2.042-0.885-2.771l-1.011-4.232l3.406,2.708
		c11.607,9.228,11.08,17.826,10.764,22.963c-0.088,1.442-0.18,2.934,0.158,3.361c0.723,0.914,1.9,2.004,3.414,2.004
		c1.582,0,3.291-1.234,4.812-3.475c2.33-3.43,2.233-5.064,2.023-8.648c-0.043-0.732-0.09-1.53-0.121-2.418
		c-0.059-1.734-0.23-3.547-0.397-5.299c-0.249-2.607-0.505-5.304-0.42-7.954c0.228-7.073,4.019-12.484,11.594-16.543l2.315-1.241
		l-0.159,3.908c-0.267,6.233-0.543,12.68,2.541,18.037c2.069,3.599,5.761,6.016,9.185,6.016c1.422,0,2.784-0.401,4.048-1.192
		c1.744-1.094,3.311-2.835,4.93-5.481c0.36-0.585,0.689-1.258,1.038-1.97c0.815-1.665,1.739-3.551,3.358-4.799l2.276-1.755
		l0.141,2.871c0.115,2.351,0.846,4.55,1.619,6.878c0.762,2.297,1.55,4.672,1.732,7.259c0.275,3.9-1.484,7.314-3.188,10.615
		c-1.882,3.65-3.66,7.099-2.318,10.729c0.985,2.663,2.924,5.094,5.317,6.668c3.53,2.323,7.083,3.603,10.002,3.603
		c3.699,0,6.44-2.032,8.146-6.04c1.155-2.714,1.473-5.847,1.779-8.876c0.077-0.755,0.153-1.507,0.24-2.25
		c0.235-1.983-0.258-3.415-1.004-5.581c-0.324-0.941-0.691-2.008-1.041-3.262l-1.125-4.034l3.433,2.399
		c1.247,0.872,2.053,1.865,2.765,2.742c0.261,0.321,0.515,0.637,0.786,0.933c1.988,2.168,3.354,4.57,4.677,6.894
		c0.458,0.805,0.921,1.619,1.416,2.438c0.535,0.884,1.103,1.752,1.672,2.623c1.405,2.151,2.859,4.376,3.851,6.865
		c1.787,4.489,0.146,8.852-1.696,12.525c-0.426,0.851-0.881,1.688-1.337,2.525c-0.539,0.992-1.097,2.018-1.582,3.033
		c-1.146,2.383-1.694,4.253-1.835,6.255c-0.103,1.473,0.2,2.833,0.521,4.273c0.219,0.982,0.445,1.998,0.564,3.116
		c0.472,4.453-1.828,7.674-3.676,10.263c-0.146,0.205-0.315,0.492-0.507,0.813c-0.94,1.573-2.229,3.728-4.223,3.728L147.203,111.54z
		"/>
	<path fill="#FFFFFF" d="M93.374,11.341c-0.272,6.764-0.836,14.01,2.687,20.129c2.191,3.81,6.253,6.769,10.486,6.769
		c1.621,0,3.269-0.434,4.845-1.421c2.309-1.447,4.011-3.677,5.414-5.971c1.259-2.046,2.075-4.854,4.032-6.363
		c0.245,4.993,3.007,9.255,3.354,14.169c0.547,7.749-8.27,14.042-5.417,21.76c1.107,2.991,3.242,5.653,5.901,7.402
		c3.438,2.263,7.291,3.85,10.827,3.85c3.884,0,7.384-1.915,9.528-6.954c1.539-3.612,1.675-7.688,2.13-11.537
		c0.391-3.3-0.947-5.325-2.09-9.423c1.52,1.062,2.312,2.375,3.304,3.458c2.532,2.761,3.981,5.902,5.916,9.095
		c1.843,3.047,4.085,5.936,5.411,9.266c1.547,3.886,0.124,7.771-1.644,11.297c-0.94,1.876-2.026,3.69-2.932,5.583
		c-1.065,2.216-1.804,4.313-1.978,6.799c-0.192,2.745,0.804,4.965,1.089,7.652c0.392,3.697-1.367,6.378-3.404,9.231
		c-0.744,1.044-2.038,3.912-3.507,3.912c-0.001,0-0.002,0-0.002,0l-119.517-9.868c-2.137-3.998-5.783-7.247-8.502-11.272
		c-4.697-6.956-5.211-14.78-3.865-22.92c1.307-7.892,6.476-13.338,9.11-20.627c2.315-6.407,2.531-11.516,2.15-17.878
		c2.85,3.298,2.987,5.483,3.896,8.305c1.426,4.419-0.195,9.943-1.336,14.219c-1.655,6.208-4.182,13.979,3.447,17.124
		c1.117,0.462,2.787,0.852,4.312,0.852c0.851,0,1.656-0.122,2.296-0.42c1.771-0.827,2.286-2.906,2.599-4.668
		c0.957-5.364-0.018-10.456-1.158-15.692c-1.254-5.762-2.609-11.539-0.797-17.353c1.007-3.23,2.387-6.334,3.889-9.361
		c1.041-2.097,2.99-6.103,4.695-8.255c-0.109,1.728,0.461,11.906,0.098,14.902c-0.768,6.329-0.744,17.312,8.012,17.312
		c0.156,0,0.315-0.004,0.477-0.011c10.301-0.446,3.704-13.328,2.772-17.229c15.41,12.251,8.259,23.017,10.677,26.079
		c1.311,1.658,2.905,2.575,4.594,2.575c1.994,0,4.118-1.281,6.056-4.133c3.126-4.604,2.346-6.607,2.161-11.962
		c-0.147-4.343-0.957-8.824-0.818-13.152C82.809,19.253,87.183,14.658,93.374,11.341 M52.152,2.84l-5.961,7.521
		c-1.816,2.292-3.727,6.148-4.867,8.453l-0.166,0.333c-1.854,3.738-3.146,6.854-4.065,9.803c-1.995,6.396-0.667,12.481,0.616,18.366
		l0.113,0.519c1.121,5.148,1.98,9.795,1.137,14.526c-0.327,1.845-0.677,2.363-0.912,2.474c-0.029,0.014-0.316,0.137-1.025,0.137
		c-1.145,0-2.414-0.312-3.166-0.623c-4.344-1.791-3.896-5.405-1.937-12.66l0.245-0.913l0.174-0.65
		c1.223-4.555,2.744-10.224,1.119-15.265c-0.168-0.521-0.307-1.019-0.443-1.507c-0.617-2.197-1.315-4.688-4.039-7.84l-5.802-6.715
		l0.53,8.858c0.365,6.089,0.158,10.77-1.977,16.677c-0.984,2.723-2.363,5.187-3.823,7.794c-2.243,4.008-4.563,8.152-5.425,13.364
		c-1.67,10.09-0.25,18.298,4.339,25.092c1.245,1.843,2.632,3.49,3.974,5.083c1.691,2.008,3.288,3.903,4.368,5.924l0.771,1.443
		l1.632,0.135l119.517,9.868l0.123,0.01h0.124c2.849,0,4.452-2.684,5.514-4.459c0.162-0.272,0.347-0.58,0.441-0.713
		c1.889-2.646,4.478-6.271,3.945-11.292c-0.128-1.203-0.363-2.262-0.591-3.285c-0.31-1.388-0.576-2.587-0.488-3.841
		c0.128-1.825,0.616-3.479,1.688-5.707c0.472-0.985,0.996-1.949,1.551-2.969c0.451-0.831,0.919-1.69,1.359-2.569
		c1.991-3.973,3.756-8.713,1.749-13.755c-1.047-2.629-2.542-4.918-3.989-7.132c-0.579-0.887-1.127-1.725-1.643-2.577
		c-0.482-0.797-0.947-1.613-1.396-2.404c-1.363-2.396-2.772-4.873-4.876-7.166c-0.229-0.25-0.471-0.548-0.727-0.863
		c-0.735-0.906-1.65-2.034-3.069-3.026l-6.865-4.801l2.25,8.069c0.361,1.298,0.736,2.387,1.067,3.348
		c0.703,2.041,1.127,3.272,0.933,4.915c-0.089,0.752-0.166,1.512-0.243,2.275c-0.31,3.053-0.601,5.936-1.667,8.438
		c-1.489,3.499-3.639,5.128-6.765,5.128c-2.629,0-5.888-1.191-9.176-3.355c-2.132-1.402-3.858-3.565-4.735-5.936
		c-1.111-3.008,0.444-6.025,2.245-9.519c1.714-3.323,3.656-7.089,3.352-11.41c-0.196-2.775-1.015-5.241-1.807-7.626
		c-0.739-2.228-1.438-4.332-1.543-6.479l-0.282-5.742l-4.553,3.511c-1.896,1.462-2.902,3.516-3.79,5.327
		c-0.332,0.679-0.646,1.32-0.967,1.841c-1.497,2.447-2.91,4.033-4.451,5c-1.02,0.638-2.113,0.962-3.249,0.962
		c-2.904,0-6.072-2.114-7.882-5.263c-2.867-4.979-2.601-11.204-2.343-17.224l0.054-1.286l0.211-5.251l-4.632,2.481
		c-8.088,4.334-12.14,10.163-12.385,17.819c-0.089,2.745,0.173,5.49,0.426,8.145c0.172,1.81,0.335,3.519,0.393,5.206
		c0.031,0.903,0.078,1.713,0.121,2.456c0.207,3.522,0.276,4.71-1.766,7.717c-1.216,1.79-2.518,2.816-3.57,2.816
		c-0.877,0-1.664-0.75-2.117-1.287c-0.08-0.462-0.008-1.621,0.045-2.483c0.311-5.074,0.891-14.518-11.328-24.231l-6.814-5.417
		l2.022,8.467c0.191,0.803,0.532,1.781,0.927,2.916c0.899,2.581,2.77,7.951,1.537,9.767c-0.428,0.631-1.565,0.81-2.443,0.848
		c-0.119,0.005-0.234,0.008-0.348,0.008c-1.918,0-2.799-0.744-3.295-1.304c-1.799-2.03-2.447-6.757-1.734-12.643
		c0.236-1.946,0.145-5.824,0.001-10.692c-0.054-1.816-0.114-3.875-0.083-4.381L52.152,2.84L52.152,2.84z"/>
</g>
<g>
	<g>
		<path fill="#58595B" d="M84.858,195.164c-9.833,0-29.089-11.682-45.785-27.776c-19.683-18.973-30.972-38.834-30.972-54.492
			c0.083-1.623,0.982-15.289,7.352-18.058c1.994-0.868,3.562-1.149,4.821-1.376c2.352-0.423,3.144-0.565,4.417-4.526
			c2.457-7.645,5.255-7.984,10.848-7.984c4.967,0,8.131-0.226,10.479-4.683c2.674-5.075,7.998-6.884,12.089-6.884
			c0.894,0,1.759,0.083,2.573,0.248c0.936,0.189,1.895,0.484,2.91,0.798c1.938,0.597,3.939,1.214,6.092,1.214
			c2.172,0,4.172-0.656,6.113-2.007c5.34-3.715,6.861-4.313,8.439-4.313l0.624,0.01l0.624-0.01c1.578,0,3.1,0.599,8.438,4.313
			c1.941,1.351,3.941,2.007,6.114,2.007c2.151,0,4.154-0.617,6.092-1.214c1.016-0.313,1.976-0.608,2.91-0.798
			c0.814-0.165,1.681-0.248,2.573-0.248c4.091,0,9.415,1.809,12.089,6.885c2.348,4.456,5.511,4.682,10.477,4.682
			c5.595,0,8.394,0.34,10.851,7.984c1.272,3.961,2.064,4.104,4.416,4.526c1.259,0.227,2.825,0.508,4.82,1.376
			c6.37,2.769,7.27,16.435,7.352,17.983c0.002,15.732-11.287,35.594-30.97,54.566C113.947,183.482,94.691,195.164,84.858,195.164
			L84.858,195.164z M84.858,165.636c-4.661,0-8.454,3.792-8.454,8.453c0,4.662,3.793,8.455,8.454,8.455s8.454-3.793,8.454-8.455
			C93.312,169.428,89.52,165.636,84.858,165.636L84.858,165.636z"/>
		<path fill="#FFFFFF" d="M85.482,66.727c1.07,0,2.228,0.299,7.638,4.062c2.437,1.695,4.751,2.259,6.915,2.259
			c3.546,0,6.685-1.515,9.28-2.04c0.715-0.145,1.489-0.221,2.295-0.221c3.902,0,8.553,1.778,10.848,6.136
			c2.77,5.257,6.713,5.432,11.718,5.432c5.007,0,7.262,0,9.515,7.011c2.253,7.009,4.257,4.255,10.013,6.759
			c5.759,2.503,6.51,16.771,6.51,16.771c0,34.8-56.328,80.865-75.354,80.865c-19.025,0-75.354-46.065-75.354-80.865
			c0,0,0.751-14.269,6.508-16.771c5.758-2.504,7.762,0.25,10.016-6.759c2.253-7.011,4.506-7.011,9.512-7.011
			c5.007,0,8.95-0.175,11.721-5.432c2.295-4.358,6.943-6.136,10.847-6.136c0.806,0,1.581,0.076,2.296,0.221
			c2.595,0.525,5.732,2.04,9.279,2.04c2.163,0,4.479-0.564,6.915-2.259c5.41-3.764,6.568-4.062,7.638-4.062
			c0.202,0,0.4,0.011,0.624,0.011S85.281,66.727,85.482,66.727 M84.858,183.947c5.444,0,9.857-4.414,9.857-9.858
			c0-5.443-4.413-9.856-9.857-9.856c-5.443,0-9.857,4.413-9.857,9.856C75.001,179.533,79.415,183.947,84.858,183.947 M85.482,63.921
			L85.482,63.921c-0.123,0-0.244,0.003-0.369,0.006c-0.082,0.002-0.166,0.005-0.255,0.005s-0.173-0.003-0.255-0.005
			c-0.125-0.003-0.246-0.006-0.368-0.006c-1.978,0-3.671,0.689-9.241,4.565c-1.722,1.197-3.41,1.755-5.312,1.755
			c-1.941,0-3.842-0.585-5.679-1.151c-1.05-0.323-2.042-0.629-3.044-0.832c-0.906-0.184-1.866-0.276-2.853-0.276
			c-4.5,0-10.365,2.005-13.329,7.634c-1.895,3.595-4.038,3.934-9.238,3.934c-5.769,0-9.443,0.433-12.184,8.958
			c-1.015,3.158-1.278,3.205-3.329,3.574c-1.261,0.227-2.987,0.537-5.134,1.47c-6.994,3.041-8.05,16.525-8.19,19.197l-0.004,0.073
			v0.074c0,22.775,21.96,46.402,31.401,55.503c17.206,16.585,36.434,28.168,46.759,28.168s29.554-11.583,46.76-28.168
			c9.44-9.101,31.4-32.727,31.4-55.503v-0.074l-0.004-0.073c-0.141-2.672-1.196-16.156-8.193-19.197
			c-2.144-0.933-3.87-1.243-5.131-1.47c-2.05-0.369-2.313-0.416-3.329-3.574c-2.739-8.525-6.415-8.958-12.186-8.958
			c-5.198,0-7.342-0.339-9.235-3.934c-2.965-5.628-8.83-7.634-13.33-7.634c-0.986,0-1.945,0.093-2.852,0.276
			c-1.003,0.203-1.995,0.509-3.045,0.832c-1.838,0.566-3.739,1.151-5.679,1.151c-1.902,0-3.591-0.558-5.312-1.755
			C89.152,64.61,87.459,63.921,85.482,63.921L85.482,63.921z M84.858,181.142c-3.888,0-7.052-3.164-7.052-7.053
			c0-3.888,3.164-7.051,7.052-7.051s7.052,3.163,7.052,7.051C91.91,177.978,88.746,181.142,84.858,181.142L84.858,181.142z"/>
	</g>
	<path fill="#58595B" stroke="#FFFFFF" stroke-width="2.8057" d="M85.492,167.143c1.526-0.354,4.671,0.374,5.67,3.041
		c1.953,5.215-1.905,7.351-1.905,7.351s2.134-2.803,0.836-6.355C89.441,169.002,88.285,167.869,85.492,167.143z"/>
</g>
<g>
	<g>
		<path fill="#929497" d="M86.611,186.757c8.388,0,19.149-13.143,9.889-24.033c-11.665-13.716-26.787-3.004-28.29-0.375
			c0,0,3.13-8.764,17.775-8.764c12.163,0,18.679,11.786,18.679,18.42c0,0,5.979-14.162-8.039-25.053
			c-14.021-10.892-34.049-0.378-39.055,5.881c0,0,10.141-13.519,24.534-13.519c14.396,0,22.595,8.198,24.285,9.888
			c1.69,1.694,6.713,10.64,6.713,15.946c0,0,3.864-8.31-2.707-20.609c-6.573-12.297-19.81-15.302-23.377-15.771
			c-3.567-0.471-19.81-3.66-37.929,13.801c0,0,9.67-13.987,27.507-16.805c17.838-2.816,30.513,4.412,38.585,12.3
			c8.073,7.885,7.135,19.901,7.135,19.901s7.512-18.118-8.166-33.797c-15.679-15.678-41.685-12.768-52.574-7.887
			c-10.891,4.883-16.054,9.341-20.184,13.612c0,0,12.297-18.306,37.551-21.215c25.255-2.911,40.838,11.641,40.838,11.641
			s11.173,9.856,11.548,26.286c0,0,7.722-24.833-9.763-38.312c-15.209-11.726-33.891-15.388-57.08-9.941
			c0,0-14.458,2.346-28.727,16.71c0,0,10.325-17.367,31.637-21.592c21.312-4.228,38.772-1.034,45.908,2.064
			c7.135,3.099,22.344,9.576,27.319,25.254c4.977,15.679-1.972,26.286-2.816,27.507c-0.844,1.221-20.279,24.067-36.238,33.327
			C90.163,188.242,86.611,186.757,86.611,186.757z"/>
	</g>
	<g>
		<path fill="#929497" d="M148.964,130.717c0,0,1.079-10.327-0.469-16.241c-1.17-4.465-7.137-18.871-30.7-27.604
			c-23.564-8.729-60.07-8.034-77.047,4.758c-15.615,11.766-17.13,17.011-18.712,22.376c0,0-2.536,15.209,10.796,32.482
			c13.331,17.274,35.486,35.3,39.242,37.364c0,0-31.826-22.625-41.965-35.674c-10.139-13.05-15.584-24.223-12.861-36.803
			s26.1-32.201,51.541-34.078c25.441-1.878,42.528,0,59.333,8.73c16.805,8.731,20.56,17.556,21.687,20.089
			C150.936,108.654,154.126,120.954,148.964,130.717z"/>
	</g>
</g>
</svg>
