<?xml version="1.0" encoding="utf-8"?>
<!-- Generator: Adobe Illustrator 14.0.0, SVG Export Plug-In . SVG Version: 6.00 Build 43363)  -->
<!DOCTYPE svg PUBLIC "-//W3C//DTD SVG 1.1//EN" "http://www.w3.org/Graphics/SVG/1.1/DTD/svg11.dtd">
<svg version="1.1" id="Layer_1" xmlns="http://www.w3.org/2000/svg" xmlns:xlink="http://www.w3.org/1999/xlink" x="0px" y="0px"
	 width="217px" height="355px" viewBox="0 0 217 355" enable-background="new 0 0 217 355" xml:space="preserve">
<g>
	<path fill="#58595B" d="M85.457,230.596c-9.771,0-17.904-5.229-20.719-13.324c-2.592-7.44-0.148-15.772,6.227-21.787
		c-3.794-3.473-6.648-7.776-8.316-12.566c-4.142-11.9-0.535-25.242,9.178-34.625c-6.07-4.644-10.523-10.708-12.947-17.664
		c-3.229-9.279-2.604-19.585,1.742-29.164c-3.514-3.938-6.162-8.427-7.881-13.363C44.739,65.117,59.345,39.067,85.3,30.033
		c5.928-2.063,12.05-3.11,18.195-3.11c2.3,0,4.604,0.15,6.866,0.446c5.846-6.073,13.259-10.784,21.505-13.657
		c5.958-2.075,12.104-3.126,18.267-3.126c20.379,0,37.438,11.181,43.465,28.485c3.666,10.531,2.748,22.013-2.562,32.517
		c5.354,4.087,9.29,9.457,11.438,15.622c6.727,19.328-5.812,41.325-27.949,49.034c-0.559,0.193-1.142,0.381-1.78,0.573
		c-0.505,17.253-13.435,33.545-31.937,39.982c-2.816,0.979-5.724,1.717-8.658,2.2c-3.332,9.899-11.192,18.101-21.426,22.387
		c3.704,10.873-3.514,23.251-16.138,27.646C91.602,230.068,88.53,230.596,85.457,230.596L85.457,230.596z"/>
	<path fill="#FFFFFF" d="M150.132,12.545c18.832,0,35.737,10.296,41.612,27.169c3.79,10.884,2.273,22.47-3.237,32.458
		c5.544,3.829,9.841,9.152,12.112,15.68c6.382,18.336-5.59,39.172-26.742,46.538c-1.027,0.356-2.054,0.66-3.084,0.944
		c0.214,16.646-11.836,33.071-30.633,39.611c-3.161,1.099-6.348,1.854-9.514,2.298c-2.979,10.077-11.125,18.931-22.497,23.04
		c0.252,0.527,0.484,1.072,0.684,1.639c3.439,9.889-3.226,21.194-14.895,25.256c-2.838,0.988-5.711,1.456-8.482,1.456
		c-8.619,0-16.266-4.524-18.867-12.007c-2.611-7.499,0.6-15.801,7.387-21.154c-4.275-3.373-7.61-7.842-9.478-13.201
		c-4.247-12.207,0.305-25.544,10.438-34.156c-6.529-4.411-11.57-10.566-14.207-18.133c-3.33-9.568-2.246-19.75,2.227-28.876
		c-3.664-3.848-6.547-8.428-8.366-13.65c-7.655-21.994,6.377-46.879,31.353-55.573c5.856-2.039,11.793-3.001,17.551-3.001
		c2.575,0,5.117,0.193,7.598,0.568c5.567-6.023,12.853-10.904,21.419-13.888C138.391,13.515,144.352,12.545,150.132,12.545
		 M150.132,8.624c-6.383,0-12.745,1.088-18.911,3.235c-8.216,2.862-15.636,7.491-21.582,13.446c-2.031-0.229-4.09-0.344-6.145-0.344
		c-6.364,0-12.703,1.083-18.84,3.219C57.68,37.57,42.531,64.739,50.889,88.745c1.667,4.786,4.165,9.17,7.441,13.067
		c-4.094,9.709-4.568,20.074-1.303,29.459c2.316,6.648,6.387,12.517,11.888,17.191c-9.089,9.8-12.286,23.125-8.119,35.099
		c1.556,4.467,4.077,8.531,7.39,11.953c-5.859,6.401-7.944,14.807-5.299,22.403c3.093,8.892,11.952,14.64,22.57,14.64
		c3.293,0,6.581-0.563,9.771-1.675c12.984-4.521,20.639-16.963,17.854-28.399c9.593-4.49,17.014-12.334,20.529-21.75
		c2.656-0.498,5.281-1.194,7.836-2.082c9.851-3.427,18.244-9.425,24.277-17.344c5.26-6.906,8.366-14.982,8.906-23.031
		c0.18-0.059,0.355-0.119,0.529-0.179c23.164-8.067,36.242-31.183,29.16-51.531c-2.102-6.038-5.818-11.35-10.84-15.532
		c4.93-10.587,5.643-22.046,1.965-32.607c-3.137-9.006-9.199-16.588-17.535-21.925C169.863,11.347,160.258,8.624,150.132,8.624
		L150.132,8.624z"/>
</g>
<g>
	<path fill="#F6921E" d="M152.203,263.54l-120.334-9.937l-0.385-0.722c-1.154-2.159-2.801-4.114-4.544-6.183
		c-1.317-1.562-2.679-3.18-3.878-4.957c-4.424-6.551-5.729-14.18-4.103-24.006c0.819-4.952,3.073-8.98,5.255-12.875
		c1.424-2.547,2.898-5.18,3.924-8.019c2.223-6.149,2.44-10.991,2.064-17.276l-0.266-4.43l2.901,3.357
		c2.503,2.897,3.126,5.118,3.729,7.265c0.142,0.506,0.286,1.021,0.46,1.562c1.49,4.617,0.031,10.05-1.14,14.414l-0.419,1.562
		c-1.891,6.997-2.795,12.128,2.812,14.438c0.824,0.342,2.298,0.738,3.74,0.738c0.879,0,1.389-0.152,1.661-0.279
		c1.075-0.502,1.479-2.012,1.755-3.568c0.893-5.003,0.008-9.803-1.147-15.109l-0.113-0.521c-1.242-5.694-2.526-11.582-0.649-17.601
		c0.895-2.871,2.158-5.916,3.977-9.582l0.166-0.333c1.115-2.252,2.98-6.02,4.698-8.187l2.981-3.761l-0.305,4.789
		c-0.037,0.575,0.02,2.491,0.08,4.521c0.111,3.777,0.25,8.479,0.009,10.467c-0.776,6.4-0.01,11.438,2.102,13.82
		c1.079,1.217,2.524,1.809,4.419,1.809c0.135,0,0.271-0.002,0.411-0.01c1.804-0.078,2.989-0.57,3.623-1.504
		c1.655-2.439-0.233-7.863-1.361-11.104c-0.382-1.096-0.711-2.043-0.885-2.771l-1.011-4.232l3.406,2.708
		c11.607,9.228,11.08,17.826,10.764,22.963c-0.088,1.441-0.18,2.934,0.158,3.361c0.723,0.914,1.9,2.004,3.414,2.004
		c1.582,0,3.291-1.234,4.812-3.476c2.33-3.43,2.233-5.063,2.023-8.647c-0.043-0.732-0.09-1.53-0.121-2.418
		c-0.059-1.734-0.23-3.547-0.397-5.299c-0.249-2.607-0.505-5.305-0.42-7.955c0.228-7.073,4.019-12.483,11.594-16.542l2.315-1.241
		l-0.159,3.908c-0.267,6.233-0.543,12.68,2.541,18.038c2.069,3.598,5.761,6.016,9.185,6.016c1.422,0,2.784-0.401,4.048-1.192
		c1.744-1.094,3.312-2.835,4.931-5.481c0.359-0.584,0.688-1.258,1.037-1.97c0.815-1.665,1.739-3.551,3.358-4.799l2.276-1.755
		l0.141,2.871c0.115,2.352,0.846,4.55,1.619,6.878c0.762,2.297,1.55,4.672,1.732,7.259c0.274,3.9-1.484,7.314-3.188,10.615
		c-1.882,3.65-3.66,7.1-2.317,10.729c0.984,2.664,2.924,5.094,5.316,6.668c3.529,2.323,7.083,3.604,10.002,3.604
		c3.699,0,6.439-2.032,8.146-6.04c1.154-2.714,1.473-5.847,1.778-8.876c0.077-0.755,0.153-1.507,0.24-2.25
		c0.235-1.982-0.258-3.415-1.004-5.581c-0.324-0.94-0.69-2.008-1.041-3.263l-1.125-4.033l3.433,2.398
		c1.247,0.873,2.053,1.865,2.766,2.742c0.261,0.321,0.515,0.637,0.785,0.934c1.988,2.168,3.354,4.57,4.678,6.894
		c0.457,0.806,0.921,1.619,1.416,2.438c0.535,0.884,1.103,1.752,1.672,2.623c1.404,2.15,2.859,4.375,3.852,6.865
		c1.786,4.488,0.146,8.852-1.697,12.524c-0.426,0.851-0.881,1.688-1.336,2.524c-0.539,0.992-1.098,2.019-1.582,3.033
		c-1.146,2.383-1.694,4.254-1.836,6.256c-0.103,1.473,0.2,2.832,0.521,4.272c0.219,0.981,0.445,1.998,0.564,3.116
		c0.472,4.453-1.828,7.674-3.676,10.263c-0.146,0.205-0.316,0.492-0.508,0.813c-0.939,1.572-2.229,3.728-4.223,3.728L152.203,263.54
		z"/>
	<path fill="#FFFFFF" d="M98.374,163.341c-0.272,6.764-0.836,14.01,2.687,20.13c2.191,3.809,6.253,6.768,10.486,6.768
		c1.621,0,3.27-0.434,4.846-1.42c2.309-1.447,4.01-3.678,5.414-5.971c1.258-2.047,2.074-4.854,4.031-6.364
		c0.245,4.993,3.008,9.254,3.354,14.168c0.547,7.75-8.27,14.043-5.416,21.761c1.106,2.991,3.242,5.653,5.9,7.401
		c3.438,2.264,7.291,3.851,10.827,3.851c3.884,0,7.384-1.915,9.528-6.954c1.539-3.611,1.675-7.688,2.13-11.537
		c0.391-3.3-0.947-5.324-2.091-9.423c1.521,1.062,2.312,2.375,3.305,3.458c2.532,2.762,3.98,5.902,5.916,9.096
		c1.843,3.047,4.085,5.936,5.411,9.266c1.547,3.886,0.124,7.771-1.644,11.297c-0.94,1.876-2.026,3.689-2.933,5.583
		c-1.065,2.216-1.804,4.313-1.978,6.799c-0.192,2.745,0.804,4.965,1.088,7.651c0.393,3.697-1.366,6.379-3.403,9.231
		c-0.744,1.044-2.038,3.912-3.507,3.912c-0.001,0-0.002,0-0.002,0l-119.517-9.868c-2.137-3.998-5.783-7.247-8.502-11.271
		c-4.697-6.957-5.211-14.78-3.865-22.92c1.307-7.893,6.476-13.338,9.11-20.627c2.315-6.407,2.531-11.517,2.15-17.879
		c2.85,3.299,2.987,5.483,3.896,8.306c1.426,4.419-0.195,9.942-1.336,14.219c-1.655,6.208-4.182,13.979,3.447,17.124
		c1.117,0.462,2.787,0.852,4.312,0.852c0.851,0,1.656-0.121,2.296-0.42c1.771-0.826,2.286-2.906,2.599-4.668
		c0.957-5.363-0.018-10.455-1.158-15.691c-1.254-5.762-2.609-11.539-0.797-17.354c1.007-3.23,2.387-6.334,3.889-9.361
		c1.041-2.097,2.99-6.103,4.695-8.255c-0.109,1.728,0.461,11.906,0.098,14.902c-0.768,6.329-0.744,17.312,8.012,17.312
		c0.156,0,0.315-0.004,0.477-0.01c10.301-0.447,3.704-13.328,2.772-17.229c15.41,12.251,8.259,23.017,10.677,26.079
		c1.311,1.658,2.905,2.574,4.594,2.574c1.994,0,4.118-1.28,6.056-4.133c3.126-4.604,2.346-6.606,2.161-11.962
		c-0.147-4.343-0.957-8.823-0.818-13.151C87.809,171.253,92.183,166.658,98.374,163.341 M57.152,154.84l-5.961,7.521
		c-1.816,2.292-3.727,6.148-4.867,8.453l-0.166,0.333c-1.854,3.738-3.146,6.854-4.065,9.803c-1.995,6.396-0.667,12.481,0.616,18.366
		l0.113,0.519c1.121,5.147,1.98,9.795,1.137,14.526c-0.327,1.845-0.677,2.363-0.912,2.474c-0.029,0.015-0.316,0.138-1.025,0.138
		c-1.145,0-2.414-0.312-3.166-0.623c-4.344-1.791-3.896-5.406-1.937-12.66l0.245-0.914l0.174-0.649
		c1.223-4.556,2.744-10.224,1.119-15.265c-0.168-0.521-0.307-1.02-0.443-1.508c-0.617-2.197-1.315-4.688-4.039-7.839l-5.802-6.715
		l0.53,8.858c0.365,6.089,0.158,10.77-1.977,16.677c-0.984,2.723-2.363,5.188-3.823,7.794c-2.243,4.008-4.563,8.151-5.425,13.364
		c-1.67,10.09-0.25,18.298,4.339,25.092c1.245,1.843,2.632,3.49,3.974,5.083c1.691,2.008,3.288,3.903,4.368,5.924l0.771,1.443
		l1.632,0.135l119.517,9.868l0.123,0.01h0.124c2.849,0,4.451-2.684,5.514-4.459c0.162-0.271,0.348-0.58,0.441-0.713
		c1.889-2.646,4.478-6.271,3.945-11.292c-0.129-1.203-0.363-2.263-0.592-3.285c-0.31-1.388-0.576-2.587-0.488-3.841
		c0.129-1.825,0.617-3.479,1.688-5.707c0.472-0.984,0.996-1.949,1.551-2.969c0.451-0.831,0.919-1.69,1.359-2.569
		c1.991-3.974,3.756-8.713,1.749-13.755c-1.047-2.629-2.542-4.918-3.989-7.132c-0.579-0.888-1.127-1.726-1.644-2.577
		c-0.481-0.797-0.946-1.613-1.396-2.404c-1.362-2.396-2.772-4.873-4.876-7.166c-0.229-0.25-0.471-0.548-0.727-0.863
		c-0.735-0.905-1.65-2.033-3.069-3.025l-6.865-4.801l2.25,8.068c0.361,1.299,0.736,2.387,1.067,3.348
		c0.703,2.041,1.127,3.272,0.933,4.916c-0.089,0.752-0.165,1.512-0.243,2.274c-0.31,3.054-0.601,5.937-1.666,8.438
		c-1.49,3.498-3.64,5.128-6.766,5.128c-2.629,0-5.889-1.191-9.176-3.354c-2.133-1.402-3.858-3.565-4.735-5.937
		c-1.11-3.009,0.444-6.025,2.245-9.519c1.714-3.324,3.656-7.09,3.352-11.41c-0.195-2.775-1.015-5.241-1.807-7.627
		c-0.738-2.228-1.438-4.332-1.543-6.479l-0.281-5.742l-4.554,3.511c-1.896,1.462-2.901,3.516-3.79,5.327
		c-0.332,0.68-0.646,1.32-0.967,1.842c-1.497,2.446-2.91,4.033-4.451,5c-1.02,0.638-2.113,0.961-3.249,0.961
		c-2.904,0-6.072-2.113-7.882-5.262c-2.867-4.979-2.601-11.205-2.343-17.225l0.054-1.286l0.211-5.251l-4.632,2.481
		c-8.088,4.334-12.14,10.163-12.385,17.819c-0.089,2.745,0.173,5.49,0.426,8.146c0.172,1.81,0.335,3.519,0.393,5.205
		c0.031,0.904,0.078,1.714,0.121,2.457c0.207,3.521,0.276,4.709-1.766,7.717c-1.216,1.789-2.518,2.816-3.57,2.816
		c-0.877,0-1.664-0.75-2.117-1.287c-0.08-0.463-0.008-1.621,0.045-2.483c0.311-5.074,0.891-14.519-11.328-24.231l-6.814-5.417
		l2.022,8.467c0.191,0.803,0.532,1.781,0.927,2.916c0.899,2.58,2.77,7.951,1.537,9.767c-0.428,0.631-1.565,0.81-2.443,0.849
		c-0.119,0.004-0.234,0.008-0.348,0.008c-1.918,0-2.799-0.744-3.295-1.305c-1.799-2.029-2.447-6.757-1.734-12.643
		c0.236-1.946,0.145-5.824,0.001-10.692c-0.054-1.816-0.114-3.875-0.083-4.381L57.152,154.84L57.152,154.84z"/>
</g>
<g>
	<g>
		<path fill="#58595B" d="M89.858,347.164c-9.833,0-29.089-11.682-45.785-27.776c-19.683-18.973-30.972-38.833-30.972-54.491
			c0.083-1.623,0.982-15.289,7.352-18.059c1.994-0.867,3.562-1.148,4.821-1.376c2.352-0.423,3.144-0.565,4.417-4.526
			c2.457-7.645,5.255-7.983,10.848-7.983c4.967,0,8.131-0.226,10.479-4.683c2.674-5.076,7.998-6.885,12.089-6.885
			c0.894,0,1.759,0.083,2.573,0.248c0.936,0.189,1.895,0.484,2.91,0.799c1.938,0.596,3.939,1.213,6.092,1.213
			c2.172,0,4.172-0.656,6.113-2.006c5.34-3.716,6.861-4.313,8.439-4.313l0.624,0.01l0.624-0.01c1.578,0,3.1,0.599,8.438,4.313
			c1.941,1.35,3.941,2.006,6.114,2.006c2.151,0,4.153-0.617,6.092-1.213c1.017-0.313,1.976-0.608,2.91-0.799
			c0.813-0.165,1.681-0.248,2.573-0.248c4.091,0,9.414,1.809,12.089,6.885c2.348,4.457,5.511,4.683,10.477,4.683
			c5.595,0,8.394,0.34,10.851,7.983c1.272,3.961,2.064,4.104,4.416,4.526c1.26,0.228,2.826,0.509,4.82,1.376
			c6.37,2.77,7.271,16.436,7.353,17.982c0.002,15.732-11.287,35.595-30.97,54.566C118.947,335.482,99.691,347.164,89.858,347.164
			L89.858,347.164z M89.858,317.636c-4.661,0-8.454,3.792-8.454,8.453c0,4.662,3.793,8.455,8.454,8.455s8.454-3.793,8.454-8.455
			C98.312,321.428,94.52,317.636,89.858,317.636L89.858,317.636z"/>
		<path fill="#FFFFFF" d="M90.482,218.727c1.07,0,2.228,0.299,7.638,4.062c2.437,1.695,4.751,2.259,6.915,2.259
			c3.546,0,6.686-1.515,9.279-2.04c0.715-0.145,1.49-0.221,2.295-0.221c3.902,0,8.554,1.777,10.849,6.136
			c2.771,5.257,6.713,5.433,11.718,5.433c5.008,0,7.262,0,9.516,7.011c2.252,7.009,4.257,4.255,10.013,6.759
			c5.759,2.503,6.51,16.771,6.51,16.771c0,34.8-56.328,80.864-75.354,80.864c-19.025,0-75.354-46.064-75.354-80.864
			c0,0,0.751-14.27,6.508-16.771c5.758-2.504,7.762,0.25,10.016-6.759c2.253-7.011,4.506-7.011,9.512-7.011
			c5.007,0,8.95-0.176,11.721-5.433c2.295-4.358,6.943-6.136,10.847-6.136c0.806,0,1.581,0.076,2.296,0.221
			c2.595,0.525,5.732,2.04,9.279,2.04c2.163,0,4.479-0.563,6.915-2.259c5.41-3.764,6.568-4.062,7.638-4.062
			c0.202,0,0.4,0.012,0.624,0.012C90.086,218.738,90.281,218.727,90.482,218.727 M89.858,335.947c5.444,0,9.857-4.414,9.857-9.858
			c0-5.442-4.413-9.855-9.857-9.855c-5.443,0-9.857,4.413-9.857,9.855C80.001,331.533,84.415,335.947,89.858,335.947
			 M90.482,215.921L90.482,215.921c-0.123,0-0.244,0.003-0.369,0.006c-0.082,0.003-0.166,0.005-0.255,0.005
			s-0.173-0.002-0.255-0.005c-0.125-0.003-0.246-0.006-0.368-0.006c-1.978,0-3.671,0.688-9.241,4.565
			c-1.722,1.197-3.41,1.755-5.312,1.755c-1.941,0-3.842-0.585-5.679-1.151c-1.05-0.322-2.042-0.629-3.044-0.832
			c-0.906-0.184-1.866-0.275-2.853-0.275c-4.5,0-10.365,2.004-13.329,7.634c-1.895,3.595-4.038,3.934-9.238,3.934
			c-5.769,0-9.443,0.433-12.184,8.958c-1.015,3.158-1.278,3.205-3.329,3.574c-1.261,0.227-2.987,0.537-5.134,1.471
			c-6.994,3.041-8.05,16.524-8.19,19.196l-0.004,0.073v0.074c0,22.774,21.96,46.401,31.401,55.503
			c17.206,16.585,36.434,28.168,46.759,28.168c10.325,0,29.554-11.583,46.76-28.168c9.44-9.102,31.399-32.728,31.399-55.503v-0.074
			l-0.004-0.073c-0.141-2.672-1.195-16.156-8.193-19.196c-2.143-0.934-3.869-1.244-5.131-1.471
			c-2.049-0.369-2.312-0.416-3.328-3.574c-2.739-8.525-6.416-8.958-12.187-8.958c-5.198,0-7.342-0.339-9.235-3.934
			c-2.965-5.628-8.83-7.634-13.33-7.634c-0.985,0-1.944,0.093-2.852,0.275c-1.003,0.203-1.994,0.51-3.045,0.832
			c-1.838,0.566-3.739,1.151-5.679,1.151c-1.902,0-3.591-0.558-5.312-1.755C94.152,216.609,92.459,215.921,90.482,215.921
			L90.482,215.921z"/>
	</g>
	<path fill="#58595B" d="M90.492,319.143c1.526-0.354,4.671,0.374,5.67,3.041c1.953,5.216-1.905,7.352-1.905,7.352
		s2.134-2.803,0.836-6.355C94.441,321.002,93.285,319.869,90.492,319.143z"/>
</g>
<g>
	<g>
		<path fill="#929497" d="M91.611,338.757c8.388,0,19.149-13.143,9.889-24.033c-11.665-13.716-26.787-3.004-28.29-0.375
			c0,0,3.13-8.764,17.775-8.764c12.163,0,18.679,11.786,18.679,18.42c0,0,5.979-14.162-8.039-25.053
			c-14.021-10.892-34.049-0.378-39.055,5.881c0,0,10.141-13.519,24.534-13.519c14.396,0,22.595,8.197,24.285,9.888
			c1.69,1.694,6.713,10.64,6.713,15.946c0,0,3.864-8.311-2.707-20.609c-6.573-12.297-19.81-15.303-23.376-15.771
			c-3.567-0.471-19.81-3.66-37.929,13.801c0,0,9.67-13.986,27.507-16.805c17.838-2.815,30.513,4.412,38.585,12.301
			c8.072,7.885,7.135,19.9,7.135,19.9s7.512-18.117-8.166-33.797c-15.679-15.678-41.686-12.768-52.574-7.887
			c-10.891,4.883-16.054,9.341-20.184,13.611c0,0,12.297-18.306,37.551-21.215c25.255-2.91,40.838,11.641,40.838,11.641
			s11.173,9.856,11.548,26.287c0,0,7.722-24.834-9.763-38.312c-15.209-11.727-33.892-15.389-57.081-9.941
			c0,0-14.458,2.347-28.727,16.711c0,0,10.325-17.367,31.637-21.592c21.312-4.229,38.772-1.035,45.909,2.063
			c7.135,3.099,22.344,9.575,27.318,25.254c4.977,15.679-1.973,26.286-2.816,27.507s-20.279,24.067-36.238,33.327
			C95.163,340.242,91.611,338.757,91.611,338.757z"/>
	</g>
	<g>
		<path fill="#929497" d="M153.964,282.717c0,0,1.079-10.326-0.469-16.24c-1.17-4.465-7.138-18.871-30.7-27.604
			c-23.564-8.729-60.07-8.034-77.047,4.758c-15.615,11.767-17.13,17.011-18.712,22.376c0,0-2.536,15.209,10.796,32.482
			c13.331,17.273,35.486,35.3,39.242,37.363c0,0-31.826-22.625-41.965-35.674c-10.139-13.05-15.584-24.223-12.861-36.803
			s26.1-32.201,51.541-34.078c25.441-1.878,42.527,0,59.333,8.73c16.805,8.73,20.56,17.556,21.687,20.089
			C155.936,260.654,159.126,272.954,153.964,282.717z"/>
	</g>
</g>
</svg>
